<?xml version="1.0" encoding="UTF-8" standalone="no"?>
<!-- Generator: Adobe Illustrator 12.0.1, SVG Export Plug-In . SVG Version: 6.00 Build 51448)  -->

<svg
   xmlns:dc="http://purl.org/dc/elements/1.1/"
   xmlns:cc="http://creativecommons.org/ns#"
   xmlns:rdf="http://www.w3.org/1999/02/22-rdf-syntax-ns#"
   xmlns:svg="http://www.w3.org/2000/svg"
   xmlns="http://www.w3.org/2000/svg"
   xmlns:sodipodi="http://sodipodi.sourceforge.net/DTD/sodipodi-0.dtd"
   xmlns:inkscape="http://www.inkscape.org/namespaces/inkscape"
   version="1.1"
   id="Layer_1"
   width="565.37885"
   height="340.29895"
   viewBox="0 0 565.37882 340.29895"
   overflow="visible"
   enable-background="new 0 0 565.379 378.676"
   xml:space="preserve"
   inkscape:version="0.47 r22583"
   sodipodi:docname="Evian_natural_spring_water_logo.svg"
   style="overflow:visible"><metadata
   id="metadata148"><rdf:RDF><cc:Work
       rdf:about=""><dc:format>image/svg+xml</dc:format><dc:type
         rdf:resource="http://purl.org/dc/dcmitype/StillImage" /></cc:Work></rdf:RDF></metadata><defs
   id="defs146"><inkscape:perspective
     sodipodi:type="inkscape:persp3d"
     inkscape:vp_x="0 : 189.338 : 1"
     inkscape:vp_y="0 : 1000 : 0"
     inkscape:vp_z="565.37903 : 189.338 : 1"
     inkscape:persp3d-origin="282.68951 : 126.22533 : 1"
     id="perspective150" /></defs><sodipodi:namedview
   pagecolor="#ffffff"
   bordercolor="#666666"
   borderopacity="1"
   objecttolerance="10"
   gridtolerance="10"
   guidetolerance="10"
   inkscape:pageopacity="0"
   inkscape:pageshadow="2"
   inkscape:window-width="640"
   inkscape:window-height="481"
   id="namedview144"
   showgrid="false"
   inkscape:zoom="0.62322408"
   inkscape:cx="282.68917"
   inkscape:cy="150.96094"
   inkscape:window-x="0"
   inkscape:window-y="0"
   inkscape:window-maximized="0"
   inkscape:current-layer="Layer_1" />
<path
   d="m 61.395661,147.845 v 0.056 c -45.764,30.236 -70.0600005,71.423 -58.5640005,110.511 22.2920005,75.813 163.2819995,97.164 315.9789995,71.568 158.436,-26.57 251.626,-86.732 246.356,-166.952 -3.117,-47.52 -67.639,-95.264 -146.401,-105.87 v 44.084 c 52.137,8.98 88.643,27.047 95.417,63.9 14.344,78.102 -77.074,142.238 -209.477,156.693 -142.67,15.572 -256.231999,-19.451 -266.051999,-98.663 -3.383,-27.306 3.204,-53.569 22.742,-75.327"
   id="path3"
   style="fill:#f7d8df" />
<path
   d="m 61.273661,147.982 c -19.44,21.732 -25.996,47.942 -22.62,75.19 9.819,79.212 123.381999,114.235 266.051999,98.663 97.899,-10.688 180.742,-48.543 211.477,-99.117 3.078,-10.557 4.43,-21.887 4.43,-34.064 0,0 2.586,-23.646 -3.262,-45.352 -1.797,-5.242 -4.891,-8.851 -7.18,-11.522 -1.293,-1.506 -2.327,-2.714 -2.733,-3.748 -1.344,-7.565 -2.819,-10.691 -3.466,-11.556 -0.598,-0.794 -1.655,-2.744 -2.741,-4.748 -1.358,-2.506 -2.761,-5.092 -3.362,-5.598 -0.452,-0.381 -1.21,-0.881 -2.101,-1.469 -2.605,-1.722 -6.338,-4.184 -6.726,-6.492 l -6.012,-11.481 c 0,0 -8.248,-5.233 -11.962,-6.562 0,0 -3.717,-2.383 -8.492,-5.305 -1.53,-0.934 -3.566,-4.31 -4.94,-6.592 -0.693,-1.15 -1.22,-2.02 -1.428,-2.162 -7.762,-5.264 -12.47,-13.936 -12.47,-13.936 l -5.045,-9.544 c 0,0 -8.17,-4.24 -10.348,-5.839 -0.404,-0.3 -1.118,-1.136 -2.025,-2.205 -2.305,-2.706 -5.872,-6.896 -8.92,-7.62 l -2.17,0.146 c 0,0 -0.015,-0.328 -3.402,1.139 0,0 -4.694,3.959 -5.65,4.657 -0.947,0.692 -4.113,1.498 -4.64,1.723 -0.526,0.222 -0.648,0.497 -0.648,0.497 l -1.634,2.406 -6.038,7.438 c -0.68,0.733 -3.464,1.746 -3.464,1.746 0,0 -9.466,3.878 -13.1,5.848 -2.29,1.24 -10.473,4.524 -14.622,3.854 -4.143,-0.664 -10.5,4.474 -13.04,4.525 0,0 -1.708,0.639 -4.049,1.44 V 62.34 c 0.492,-0.168 0.967,-0.332 1.391,-0.482 l -1.126,-3.034 c 0,0 -7.616,-7.546 -8.5,-8.529 0,0 -2.046,-1.316 -3.515,-2.303 -0.563,-0.376 -1.686,-1.042 -2.922,-1.775 -1.987,-1.18 -4.268,-2.536 -4.991,-3.139 -0.849,-0.716 -2.464,-3.146 -3.734,-5.058 -0.49,-0.732 -0.924,-1.388 -1.248,-1.844 -0.092,-0.124 -0.18,-0.248 -0.266,-0.37 -1.048,-1.46 -1.9,-2.65 -3.252,-3.563 -1.468,-0.981 -3.229,-3.607 -3.229,-3.607 l -1.46,-2.624 c 0,0 -3.275,-5.845 -6.502,-6.822 -3.224,-0.988 -4.636,-1.712 -4.636,-1.712 l -4.386,-4.306 c 0,0 -8.458,-12.358 -9.763,-12.671 l -2.094,-0.501 -2.156,0.127 c -0.352,0.021 -0.794,0.161 -1.39,0.493 -2.348,1.313 -10.552,7.874 -12.311,8.856 -1.758,0.994 -2.64,1.968 -3.52,3.609 -0.878,1.639 -10.55,12.805 -12.014,13.461 -1.467,0.653 -6.742,2.298 -8.5,3.611 0,0 -1.172,1.635 -1.76,2.622 -0.585,0.984 -4.101,5.912 -5.564,6.89 -1.47,0.984 -5.864,3.286 -5.864,3.286 0,0 -2.71,7.112 -5.296,11.284 -0.712,0.885 -1.442,1.78 -2.164,2.65 -0.014,0.01 -0.03,0.023 -0.042,0.034 l -3.92,2.754 c -0.528,0.321 -0.972,0.594 -1.37,0.84 -0.956,-1.84 -2.498,-4.03 -4.504,-4.252 -1.512,-0.17 -1.568,-2.688 -1.568,-2.688 l 0.135,-5.292 -1.064,-2.518 -2.918,-4.512 c -0.748,-2.011 -1.464,-4.214 -2.09,-6.145 -0.832,-2.562 -1.506,-4.64 -1.89,-5.132 l -3.507,-2.656 c -0.355,-0.238 -0.63,-0.426 -0.842,-0.572 -0.434,-0.302 -0.614,-0.426 -0.724,-0.426 -0.08,0 -0.124,0.064 -0.2,0.17 -0.074,0.106 -0.189,0.258 -0.388,0.433 -0.091,-0.063 -0.183,-0.124 -0.259,-0.177 -0.432,-0.302 -0.611,-0.426 -0.722,-0.426 -0.08,0 -0.124,0.064 -0.2,0.17 -0.092,0.133 -0.235,0.332 -0.546,0.566 -0.042,-0.023 -0.288,-0.136 -0.706,0.154 -1.582,1.126 -8.638,5.527 -10.8,8.674 -1.224,1.794 -5.528,3.096 -5.528,3.096 l -2.205,1.553 c 0,0 -3.173,2.563 -4.418,2.791 -1.694,0.318 -4.711,0.61 -6.181,1.845 -1.478,1.248 -3.638,4.046 -3.638,4.046 0,0 -1.721,2.158 -2.704,2.476 -0.98,0.302 -2.156,5.874 -5.108,10.21 -2.941,4.336 -11.58,4.645 -12.319,4.969 -0.738,0.308 -3.011,4.951 -3.988,6.5 -0.984,1.545 -3.486,2.472 -4.162,2.745 -4.044,1.634 -5.194,2.591 -7.894,5.994 l -3.652,8.179 -8.086,8.537 -10.778,7.446 -1.153,5.274 -4.114,2.456 c 0,0 -0.521999,-0.212 -1.991999,2.266 0,0 -4.514,4.202 -11.672,8.114 -2.216,1.204 -0.868,2.454 0.186,3.115 l -12.563,16.549 c -7.442,0.972 -12.68,3.794 -12.68,3.794 v 0.056 c -0.044,0.03 -0.083,0.057 -0.123,0.083"
   id="path5"
   style="fill:#ffffff" />
<path
   d="m 532.14666,267.377 -0.723,0.104 -0.707,0.168 -0.672,0.234 -0.648,0.296 -0.613,0.354 -0.57,0.412 -0.535,0.468 -0.488,0.521 -0.434,0.578 -0.379,0.62 -0.324,0.67 -0.246,0.71 -0.191,0.754 -0.117,0.8 -0.039,0.834 0.035,0.79 0.105,0.772 0.176,0.729 0.238,0.702 0.293,0.664 0.359,0.622 0.41,0.578 0.473,0.531 0.516,0.484 0.566,0.426 0.613,0.368 0.652,0.311 0.699,0.245 0.727,0.181 0.773,0.111 0.797,0.036 0.73,-0.032 0.723,-0.104 0.695,-0.168 0.676,-0.234 0.645,-0.298 0.613,-0.352 0.57,-0.414 0.527,-0.468 0.48,-0.522 0.438,-0.574 0.375,-0.622 0.32,-0.67 0.262,-0.708 0.184,-0.756 0.117,-0.798 0.039,-0.832 -0.039,-0.834 -0.117,-0.8 -0.184,-0.754 -0.262,-0.71 -0.32,-0.67 -0.375,-0.62 -0.438,-0.578 -0.48,-0.521 -0.527,-0.468 -0.57,-0.412 -0.613,-0.354 -0.645,-0.296 -0.676,-0.234 -0.695,-0.168 -0.723,-0.104 -0.73,-0.032 -0.746,0.034 0,0 z m 0.141,1.308 0.605,-0.03 0.594,0.03 0.582,0.088 0.559,0.142 0.531,0.198 0.504,0.248 0.48,0.298 0.441,0.346 0.41,0.395 0.371,0.432 0.328,0.477 0.285,0.512 0.246,0.554 0.188,0.584 0.141,0.618 0.086,0.646 0.031,0.678 -0.031,0.678 -0.086,0.65 -0.141,0.618 -0.188,0.59 -0.246,0.548 -0.285,0.516 -0.328,0.475 -0.371,0.434 -0.41,0.387 -0.441,0.346 -0.48,0.298 -0.504,0.248 -0.531,0.198 -0.559,0.14 -0.582,0.086 -0.594,0.032 -0.656,-0.034 -0.625,-0.094 -0.59,-0.156 -0.555,-0.208 -0.516,-0.264 -0.484,-0.316 -0.438,-0.355 -0.395,-0.406 -0.355,-0.444 -0.313,-0.479 -0.266,-0.519 -0.227,-0.544 -0.168,-0.572 -0.211,-1.216 -0.023,-0.634 0.031,-0.678 0.086,-0.646 0.141,-0.618 0.195,-0.584 0.238,-0.554 0.289,-0.512 0.332,-0.477 0.371,-0.432 0.41,-0.395 0.449,-0.346 0.48,-0.298 0.508,-0.248 0.535,-0.198 0.566,-0.142 0.586,-0.091 0,0 z m -2.266,10.536 h 1.375 v -3.576 h 1.293 l 2.164,3.576 h 1.555 l -2.344,-3.678 0.453,-0.072 0.418,-0.13 0.371,-0.185 0.316,-0.238 0.262,-0.306 0.195,-0.378 0.156,-0.698 -0.039,-0.866 -0.145,-0.502 -0.238,-0.414 -0.336,-0.334 -0.434,-0.247 -0.523,-0.181 -0.617,-0.102 -0.711,-0.034 h -3.172 v 8.365 l 10e-4,0 z m 1.375,-4.748 v -2.446 h 1.656 l 0.637,0.038 0.582,0.152 0.242,0.14 0.188,0.202 0.125,0.264 0.039,0.555 -0.082,0.357 -0.152,0.265 -0.344,0.272 -0.289,0.104 -0.328,0.058 -2.274,0.039"
   id="path7"
   style="fill:#ffffff" />
<path
   d="m 372.15366,223.536 0,0 c 1.439,-0.105 2.932,-0.231 4.27,-0.38 l -0.002,3.721 c -0.02,8.8 -2.968,16.487 -8.16,21.943 -5.166,5.43 -12.775,8.896 -22.628,8.896 -4.102,0 -8.38,-1.557 -11.604,-4.435 -3.164,-2.828 -5.353,-6.962 -5.353,-12.35 0,-4.052 1.1,-6.858 2.719,-8.906 1.655,-2.096 4.075,-3.678 7.146,-4.846 3.076,-1.172 6.634,-1.868 10.346,-2.292 3.706,-0.426 7.412,-0.568 10.796,-0.698 1.727,-0.063 3.408,-0.126 4.889,-0.224 0.454,-0.019 3.967,-0.164 7.581,-0.429 l 0,0 z m 9.934,58.937 h 32.605 l -2.855,-5.318 c -3.164,-5.89 -4.16,-9.796 -4.521,-13.436 l -0.015,-0.124 c 0,0 -0.044,-0.334 -0.114,-1.028 -0.073,-0.71 -0.168,-1.782 -0.258,-3.174 -0.178,-2.786 -0.334,-6.87 -0.228,-11.982 0.214,-10.478 0.336,-43.788 0.336,-43.788 v -0.012 c 0,-8.49 -0.698,-16.222 -2.39,-23.03 -1.696,-6.815 -4.41,-12.792 -8.5,-17.655 -4.108,-4.891 -9.477,-8.498 -16.217,-10.748 -5.562,-1.856 -12.016,-2.776 -19.438,-2.776 -1.519,0 -3.074,0.04 -4.672,0.116 -9.486,0.46 -17.424,2.2 -24.756,4.944 -6.95,2.602 -13.427,6.078 -19.977,11.744 l -1.254,1.084 0.074,28.271 5.716,-4.154 c 7.188,-5.226 13.554,-8.896 19.61,-11.348 6.031,-2.442 11.817,-3.702 17.88,-4.048 l 0.06,-0.004 c 1.192,-0.068 2.334,-0.103 3.43,-0.103 2.765,0 5.227,0.214 7.389,0.646 3.025,0.604 5.365,1.613 7.126,2.97 1.728,1.33 3.044,3.106 3.888,5.502 0.853,2.414 1.258,5.546 1.006,9.576 l -0.102,0.731 c -0.196,1.303 -0.494,1.599 -0.616,1.71 -0.248,0.23 -0.858,0.601 -2.649,1.051 -0.274,0.065 -0.767,0.153 -1.5,0.245 -0.715,0.091 -1.568,0.175 -2.521,0.253 -1.904,0.153 -4.118,0.275 -6.242,0.37 -3.96,0.176 -7.502,0.247 -7.954,0.256 -0.236,-0.002 -0.474,-0.004 -0.714,-0.004 -11.737,0 -25.354,2.455 -36.248,8.964 -5.6,3.342 -10.54,7.796 -14.073,13.584 -3.547,5.808 -5.584,12.808 -5.584,21.08 0,7.044 1.18,13.239 3.47,18.577 2.298,5.349 5.676,9.75 9.939,13.215 8.498,6.901 20.23,9.871 33.416,9.871 10.126,0 18.259,-2.655 24.606,-6.361 3.06,-1.786 5.688,-3.807 7.92,-5.866 0.28,1.672 0.716,3.29 1.262,4.732 0.584,1.531 1.366,3.054 2.374,4.229 l 1.291,1.238"
   id="path9"
   style="fill:#ffffff" />
<path
   d="m 146.79566,168.271 0,0 c -10.44,-12.18 -24.946,-18.366 -40.998,-18.366 -17.867999,0 -33.109999,7.019 -43.847999,18.938 -10.714,11.89 -16.78,28.468 -16.763,47.39 v 0.004 c 0.022,19.006 4.631,36.314 14.889,48.944 5.14,6.328 11.653,11.426 19.594,14.926 7.928,3.496 17.19,5.368 27.797999,5.374 h 0.058 c 10.707,0 19.761,-1.652 28.063,-4.578 8.294,-2.922 15.732,-7.082 23.208,-11.974 l 1.632,-1.068 v -32.306 l -5.828,4.54 c -6.605,5.146 -14.025,10.042 -21.521,13.634 -7.53,3.61 -14.916,5.8 -21.517,5.8 -10.863,0 -19.494999,-3.5 -25.425999,-9.774 -5.372,-5.684 -8.842,-13.976 -9.464,-24.884 l 86.301999,-0.052 0.332,-3.857 c -0.002,-22.781 -6.107,-40.556 -16.511,-52.691 l 0,0 z m -60.400999,14.475 0,0 c 4.646,-4.598 11.061,-7.188 19.342999,-7.188 7.394,0 13.408,2.771 17.76,7.523 3.731,4.076 6.38,9.769 7.456,16.765 l -52.981999,-0.008 c 1.506,-7.445 4.432,-13.134 8.423,-17.092 l 0,0 z M 244.38666,151.91 h -2.476 l -32.288,83.643 -30.208,-83.643 h -33.608 l 51.65,130.551 21.82,0.104 46.081,-116.04 -0.083,115.926 30.312,0.026 0.028,-130.566 h -51.228"
   id="path11"
   style="fill:#ffffff" />
<path
   d="m 445.49566,198.009 c 0.052,-0.898 0.359,-2.026 0.946,-3.326 0.586,-1.313 1.378,-2.632 2.204,-3.842 0.821,-1.202 1.642,-2.238 2.256,-2.973 0.5,-0.596 0.838,-0.966 0.938,-1.071 6.168,-6.135 11.884,-8.74 15.92,-9.853 2.034,-0.56 3.67,-0.748 4.752,-0.804 0.276,-0.012 0.519,-0.016 0.718,-0.016 0.196,0 0.353,0.004 0.473,0.008 0.124,0.008 0.204,0.012 0.246,0.016 0.025,0.004 0.038,0.004 0.038,0.004 l 0.33,0.024 c 4.186,0.094 7.115,0.974 9.191,2.18 2.059,1.192 3.48,2.818 4.49,4.75 1.03,1.97 1.642,4.286 1.978,6.792 0.334,2.5 0.374,5.064 0.341,7.488 -0.026,1.748 -0.007,3.322 0.01,4.644 0.014,1.017 0.023,1.84 0.016,2.536 v 77.906 h 30.774 v -77.584 c 0.02,-9.026 -0.176,-16.116 -1.023,-22.032 -0.855,-5.994 -2.391,-10.878 -5.102,-15.498 l -0.004,-0.012 c -4.453,-7.574 -10.479,-12.234 -17.046,-14.92 -5.941,-2.433 -12.229,-3.208 -18.067,-3.208 -0.548,0 -1.096,0.004 -1.634,0.018 -8.458,0.206 -15.74,2.158 -21.664,4.822 -0.704,0.292 -5.353,2.306 -10.973,6.83 l 0.015,-9.082 h -30.79 v 130.611 h 25.189 l 5.479,-3.478 v -80.93"
   id="path13"
   style="fill:#ffffff" />
<polyline
   points="265.372,150.698 295.616,150.702 295.616,121.473 265.358,121.473 265.372,150.698 "
   id="polyline15"
   style="fill:#ffffff"
   transform="translate(-3.3947315e-4,0)" />
<path
   d="m 135.41166,203.559 -61.159999,-0.006 c 2.494,-20.026 13.824,-31.469 31.961999,-31.469 16.721,0 27.929,12.673 29.198,31.475 l 0,0 z m -61.929999,17.792 86.587999,-0.058 0.023,-0.263 c 0,-44.262 -23.71,-67.362 -53.822,-67.362 -33.687999,0 -56.950999,26.389 -56.911999,62.648 0.041,36.924 17.918,65.53 58.580999,65.548 20.649,0.013 34.609,-6.342 49.275,-15.946 v -22.934 c -13.472,10.5 -30.516,20.182 -45.186,20.182 -23.294999,0 -38.546999,-15.1 -38.546999,-41.815"
   id="path17"
   style="fill:#e1194a" />
<polyline
   points="292.181,278.862 292.204,155.675 269.214,155.675 269.13,278.839 292.181,278.862 "
   id="polyline19"
   style="fill:#e1194a"
   transform="translate(-3.3947315e-4,0)" />
<path
   d="m 441.87366,198.026 0,0 c 0.264,-6.124 7.344,-13.632 7.344,-13.632 13.256,-13.204 25.12,-11.698 25.12,-11.698 18.58,0.422 19.643,14.91 19.492,24.854 -0.048,2.979 0.064,5.42 0.04,7.17 v 74.142 h 23.516 v -73.87 c 0.023,-18.033 -0.797,-27.422 -5.629,-35.664 -8.035,-13.697 -21.543,-16.615 -33.499,-16.328 -7.96,0.198 -14.775,2.034 -20.29,4.522 0,0 -8.071,3.238 -16.008,11.813 l 0.026,-13.766 h -23.53 v 123.292 h 23.418 v -80.835"
   id="path21"
   style="fill:#e1194a" />
<path
   d="m 380.11566,218.805 0,0 -0.008,8.154 c -0.038,19.182 -12.885,34.388 -34.351,34.388 -9.924,0 -20.532,-7.458 -20.532,-20.362 0,-21.502 26.813,-19.706 39.248,-20.542 0,-0.001 14.79,-0.585 15.643,-1.638 l 0,0 z m 3.493,60.086 -0.054,-0.028 h 25.135 c -3.356,-6.25 -4.511,-10.602 -4.925,-14.768 0,0 -0.842,-6.274 -0.632,-16.71 0.21,-10.44 0.334,-43.672 0.334,-43.672 0,-33.209 -10.95,-52.173 -47.364,-50.429 -9.105,0.437 -16.666,2.099 -23.623,4.706 -6.608,2.464 -12.69,5.746 -18.86,11.076 l 0.056,19.534 c 14.688,-10.681 26.458,-15.332 39.344,-16.066 17.65,-1.014 27.832,4.836 26.66,22.534 l -0.115,0.88 c -0.537,3.57 -2.129,4.788 -5.961,5.75 -3.836,0.956 -19.041,1.24 -19.041,1.24 -22.944,-0.218 -52.954,9.378 -52.954,39.962 0,26.524 17.77,37.988 43.153,37.988 18.902,0 29.986,-9.891 35.387,-17.232 0,0 0.109,4.438 0.584,7.628 0.481,3.2 1.599,6.118 2.876,7.607"
   id="path23"
   style="fill:#e1194a" />
<polyline
   points="151.53,155.675 200.254,278.862 217.144,278.94 266.088,155.675 244.66,155.675 209.836,245.918   177.248,155.675 151.53,155.675 "
   id="polyline25"
   style="fill:#e1194a"
   transform="translate(-3.3947315e-4,0)" />
<polyline
   points="292.204,147.261 292.204,125.278 269.068,125.278 269.082,147.254 292.204,147.261 "
   id="polyline27"
   style="fill:#e1194a"
   transform="translate(-3.3947315e-4,0)" />
<path
   d="m 533.62366,267.377 -0.73,-0.032 -0.746,0.032 -0.723,0.104 -0.707,0.168 -0.672,0.234 -0.648,0.296 -0.613,0.354 -0.57,0.412 -0.535,0.468 -0.488,0.521 -0.434,0.578 -0.379,0.62 -0.324,0.67 -0.246,0.71 -0.191,0.754 -0.117,0.8 -0.039,0.834 0.035,0.79 0.105,0.772 0.176,0.729 0.238,0.702 0.293,0.664 0.359,0.622 0.41,0.578 0.473,0.531 0.516,0.484 0.566,0.426 0.613,0.368 0.652,0.311 0.699,0.245 0.727,0.181 0.773,0.111 0.797,0.036 0.73,-0.032 0.723,-0.104 0.695,-0.168 0.676,-0.234 0.645,-0.298 0.613,-0.352 0.57,-0.414 0.527,-0.468 0.48,-0.522 0.438,-0.574 0.375,-0.622 0.32,-0.67 0.262,-0.708 0.184,-0.756 0.117,-0.798 0.039,-0.832 -0.039,-0.834 -0.117,-0.8 -0.184,-0.754 -0.262,-0.71 -0.32,-0.67 -0.375,-0.62 -0.438,-0.578 -0.48,-0.521 -0.527,-0.468 -0.57,-0.412 -0.613,-0.354 -0.645,-0.296 -0.676,-0.234 -0.695,-0.168 -0.723,-0.102 0,0 z m -1.336,1.308 0.605,-0.03 0.594,0.03 0.582,0.088 0.559,0.142 0.531,0.198 0.504,0.248 0.48,0.298 0.441,0.346 0.41,0.395 0.371,0.432 0.328,0.477 0.285,0.512 0.246,0.554 0.188,0.584 0.141,0.618 0.086,0.646 0.031,0.678 -0.031,0.678 -0.086,0.65 -0.141,0.618 -0.188,0.59 -0.246,0.548 -0.285,0.516 -0.328,0.475 -0.371,0.434 -0.41,0.387 -0.441,0.346 -0.48,0.298 -0.504,0.248 -0.531,0.198 -0.559,0.14 -0.582,0.086 -0.594,0.032 -0.656,-0.034 -0.625,-0.094 -0.59,-0.156 -0.555,-0.208 -0.516,-0.264 -0.484,-0.316 -0.438,-0.355 -0.395,-0.406 -0.355,-0.444 -0.313,-0.479 -0.266,-0.519 -0.227,-0.544 -0.168,-0.572 -0.211,-1.216 -0.023,-0.634 0.031,-0.678 0.086,-0.646 0.141,-0.618 0.195,-0.584 0.238,-0.554 0.289,-0.512 0.332,-0.477 0.371,-0.432 0.41,-0.395 0.449,-0.346 0.48,-0.298 0.508,-0.248 0.535,-0.198 0.566,-0.142 0.586,-0.091 0,0 z m -0.891,5.788 v -2.446 h 1.656 l 0.637,0.038 0.582,0.152 0.242,0.14 0.188,0.202 0.125,0.264 0.039,0.555 -0.082,0.357 -0.152,0.265 -0.344,0.272 -0.289,0.104 -0.328,0.058 -2.274,0.039 0,0 z m 2.508,-3.582 -0.711,-0.034 h -3.172 v 8.364 h 1.375 v -3.576 h 1.293 l 2.164,3.576 h 1.555 l -2.344,-3.678 0.453,-0.072 0.418,-0.13 0.371,-0.185 0.316,-0.238 0.141,-0.146 0.23,-0.338 0.207,-0.646 0.031,-0.836 -0.098,-0.542 -0.191,-0.456 -0.285,-0.376 -0.383,-0.292 -0.477,-0.21 -0.893,-0.185"
   id="path29"
   style="fill:#e1194a" />
<rect
   x="83.234665"
   y="26.895"
   width="132.213"
   height="101.086"
   id="rect31"
   style="fill:none" />
<polygon
   points="83.45,128.219 217.449,128.219 217.449,128.219 217.449,26.895 83.45,26.895 "
   id="polygon33"
   style="fill:none"
   transform="translate(-3.3947315e-4,0)" />
<rect
   x="213.89366"
   y="0.12899999"
   width="141.272"
   height="121.255"
   id="rect35"
   style="fill:none" />
<polygon
   points="215.157,122.323 357.16,122.323 357.16,122.323 357.16,0.129 215.157,0.129 "
   id="polygon37"
   style="fill:none"
   transform="translate(-3.3947315e-4,0)" />
<rect
   x="-183.41945"
   y="321.20148"
   transform="matrix(-0.11579684,-0.99327292,0.99327292,-0.11579684,0,0)"
   width="117.67921"
   height="151.09212"
   id="rect39"
   style="fill:none" />
<polygon
   points="341.703,145.146 492.785,127.534 492.785,127.534 479.124,10.342 328.042,27.954 "
   id="polygon41"
   style="fill:none"
   transform="translate(-3.3947315e-4,0)" />
<linearGradient
   id="XMLID_4_"
   gradientUnits="userSpaceOnUse"
   x1="60.8564"
   y1="-192.4165"
   x2="60.8564"
   y2="-91.457802"
   gradientTransform="translate(89.290661,219.4404)">
	<stop
   offset="0"
   style="stop-color:#0073B4"
   id="stop44" />
	<stop
   offset="0.1254"
   style="stop-color:#0075B5"
   id="stop46" />
	<stop
   offset="0.2553"
   style="stop-color:#007BB8"
   id="stop48" />
	<stop
   offset="0.3875"
   style="stop-color:#1084BE"
   id="stop50" />
	<stop
   offset="0.5211"
   style="stop-color:#5193C6"
   id="stop52" />
	<stop
   offset="0.6559"
   style="stop-color:#7EA9D2"
   id="stop54" />
	<stop
   offset="0.7917"
   style="stop-color:#ADC4E0"
   id="stop56" />
	<stop
   offset="0.9259"
   style="stop-color:#DDE5F1"
   id="stop58" />
	<stop
   offset="1"
   style="stop-color:#F9FAFB"
   id="stop60" />
</linearGradient>
<path
   d="m 197.57166,38.67 c 0,0.919 -0.715,3.043 0.754,4.039 1.306,0.884 0.979,3.096 0.248,4.021 -0.74,0.934 -2.702,4.648 -4.181,5.892 -1.468,1.236 -5.646,2.477 -3.926,3.402 1.718,0.933 5.895,5.888 5.895,5.888 0,0 1.229,4.963 0.241,7.438 -0.979,2.476 -2.943,5.569 -3.678,6.506 -0.74,0.922 0,3.096 0,3.096 l 1.96,5.263 c 0,0 0.248,3.096 -0.492,3.416 -0.733,0.3 -0.979,2.472 -0.979,2.472 2.21,1.856 11.21,8.644 11.21,8.644 l -0.984,7.744 c 0,0 2.21,3.721 2.21,4.652 0,0.924 -0.983,4.02 -0.983,4.02 0,0 9.116,5.408 9.842,5.408 0.74,0 -0.002,6.098 -0.002,6.098 l -6.895,1.192 c -3.678,-2.162 -5.886,-1.842 -5.886,-1.842 -1.229,0 -5.404,-3.724 -5.404,-3.724 l -2.453,-1.24 c 0,0 -10.803,-0.322 -12.274,0.304 -1.474,0.616 -2.112,0.556 -2.948,0.187 -1.268,-0.553 -5.313,-0.463 -6.788,-0.784 -1.472,-0.3 -6.63,-0.616 -7.368,-0.3 -0.733,0.3 -2.205,-1.551 -2.941,-3.099 -0.74,-1.558 -6.628,-5.58 -6.628,-5.58 -2.946,0.307 -12.03,-0.616 -12.03,-0.616 -1.72,0.616 -0.492,2.164 -4.91,0.923 -4.42,-1.24 -6.874,1.241 -6.874,1.241 0,0 -2.208,2.475 -3.189,4.336 -0.982,1.856 -3.19,2.17 -3.19,2.17 -8.1,5.261 -13.75,5.887 -13.75,5.887 0,0 -6.016,0.516 -6.016,0 -2.454,-0.926 -7.755999,-0.294 -10.699999,0.63 -2.95,0.95 -6.924,1.63 -6.924,1.63 0,0 -4.3,-1.846 -1.082,-3.596 7.158,-3.912 11.672,-8.114 11.672,-8.114 1.47,-2.478 1.991999,-2.266 1.991999,-2.266 l 4.114,-2.456 1.153,-5.274 10.778,-7.446 8.086,-8.537 3.652,-8.179 c 2.699,-3.403 3.85,-4.36 7.894,-5.994 0.676,-0.273 3.178,-1.2 4.162,-2.745 0.978,-1.549 3.25,-6.192 3.988,-6.5 0.739,-0.324 9.378,-0.633 12.319,-4.969 2.952,-4.336 4.128,-9.908 5.108,-10.21 0.983,-0.317 2.704,-2.476 2.704,-2.476 0,0 2.16,-2.798 3.638,-4.046 1.47,-1.234 4.486,-1.526 6.181,-1.845 1.245,-0.228 4.418,-2.791 4.418,-2.791 l 2.205,-1.553 c 0,0 4.305,-1.302 5.528,-3.096 2.162,-3.146 9.218,-7.548 10.8,-8.674 0.463,-0.318 0.725,-0.146 0.725,-0.146 V 38.67"
   id="path62"
   style="fill:url(#XMLID_4_)" />
<linearGradient
   id="XMLID_5_"
   gradientUnits="userSpaceOnUse"
   x1="195.23849"
   y1="-219.31351"
   x2="195.23849"
   y2="-98.721901"
   gradientTransform="translate(89.290661,219.4404)">
	<stop
   offset="0"
   style="stop-color:#0073B4"
   id="stop65" />
	<stop
   offset="0.1254"
   style="stop-color:#0075B5"
   id="stop67" />
	<stop
   offset="0.2553"
   style="stop-color:#007BB8"
   id="stop69" />
	<stop
   offset="0.3875"
   style="stop-color:#1084BE"
   id="stop71" />
	<stop
   offset="0.5211"
   style="stop-color:#5193C6"
   id="stop73" />
	<stop
   offset="0.6559"
   style="stop-color:#7EA9D2"
   id="stop75" />
	<stop
   offset="0.7917"
   style="stop-color:#ADC4E0"
   id="stop77" />
	<stop
   offset="0.9259"
   style="stop-color:#DDE5F1"
   id="stop79" />
	<stop
   offset="1"
   style="stop-color:#F9FAFB"
   id="stop81" />
</linearGradient>
<path
   d="m 224.12966,56.925 c 2.932,-1.973 7.502,-13.969 7.502,-13.969 0,0 4.395,-2.302 5.864,-3.286 1.464,-0.978 4.979,-5.905 5.564,-6.89 0.588,-0.987 1.76,-2.622 1.76,-2.622 1.758,-1.313 7.033,-2.958 8.5,-3.611 1.464,-0.656 11.136,-11.822 12.014,-13.461 0.88,-1.642 1.762,-2.615 3.52,-3.609 1.759,-0.982 9.963,-7.544 12.311,-8.856 0.596,-0.332 1.038,-0.472 1.39,-0.493 l 0.076,0.161 0.878,2.79 c 0.442,2.307 0,6.398 0.878,7.223 0.88,0.824 6.742,6.069 7.038,7.224 0.294,1.138 -1.032,1.956 0.729,3.278 1.76,1.312 8.647,7.71 8.647,7.71 0,0 0,1.479 0.586,2.626 0.59,1.147 3.242,6.57 3.242,6.57 0,0 -1.538,2.945 -1.101,4.256 0.438,1.31 7.53,10.67 7.53,10.67 0.442,3.604 9.969,14.271 9.969,14.76 0,0.49 1.901,6.072 1.901,6.072 -0.046,2.071 0.616,6.031 0.616,6.031 0,0 -1.198,2.502 -1.348,2.832 -0.145,0.324 0.588,5.082 0.588,5.082 0,0 2.344,4.106 2.932,4.267 0.584,0.162 4.834,3.282 4.544,3.936 -0.294,0.652 0,4.922 0.29,5.746 0.292,0.818 2.492,1.642 2.492,1.642 3.964,1.637 12.313,10.502 12.754,10.99 0.438,0.496 1.76,0.818 1.76,0.818 0,0 3.364,0.83 4.391,0.984 1.025,0.166 3.22,4.924 3.22,4.924 -1.02,0 -3.07,-0.984 -6,-0.488 -2.932,0.488 -12.606,1.146 -12.898,0.162 -0.296,-0.984 -2.199,-1.634 -3.371,-2.462 -1.179,-0.82 -4.398,-0.324 -5.572,-0.16 -1.174,0.16 -0.876,0.322 -3.809,0.322 -2.93,0 -12.162,0.336 -13.632,-0.658 -1.462,-0.982 -6,-5.08 -6,-5.08 0,0 -1.324,-0.328 -2.204,-0.66 -0.88,-0.33 -4.84,-5.248 -5.861,-5.088 -1.026,0.164 -4.839,-3.776 -7.769,-6.234 -2.924,-2.458 -5.567,-2.624 -6.302,-2.947 -0.73,-0.332 -1.758,-2.294 -1.758,-2.294 l -3.664,-10.017 c 0,0 -0.582,-1.474 -1.754,-4.102 -1.177,-2.624 -7.922,-2.966 -9.973,-3.124 -2.052,-0.162 -4.779,-3.452 -4.779,-3.452 0,0 -2.654,-1.86 -7.166,-2.122 -4.738,-0.28 -1.856,0.796 -8.756,-1.064 -1.564,-0.422 -2.154,-3.855 -3.477,-4.842 -1.313,-0.976 -6.886,1.152 -11.14,2.469 -4.244,1.312 -3.86,-0.807 -7.16,-2.141 -2.63,-1.058 -2.372,-1.718 -5.822,-0.523 l -2.406,-2.269 c 2.633,-1.989 2.994,-2.238 6.316,-4.266 l 3.92,-2.755"
   id="path83"
   style="fill:url(#XMLID_5_)" />
<linearGradient
   id="XMLID_6_"
   gradientUnits="userSpaceOnUse"
   x1="307.13062"
   y1="-189.1152"
   x2="326.4122"
   y2="-79.764099"
   gradientTransform="translate(89.290661,219.4404)">
	<stop
   offset="0"
   style="stop-color:#0073B4"
   id="stop86" />
	<stop
   offset="0.1254"
   style="stop-color:#0075B5"
   id="stop88" />
	<stop
   offset="0.2553"
   style="stop-color:#007BB8"
   id="stop90" />
	<stop
   offset="0.3875"
   style="stop-color:#1084BE"
   id="stop92" />
	<stop
   offset="0.5211"
   style="stop-color:#5193C6"
   id="stop94" />
	<stop
   offset="0.6559"
   style="stop-color:#7EA9D2"
   id="stop96" />
	<stop
   offset="0.7917"
   style="stop-color:#ADC4E0"
   id="stop98" />
	<stop
   offset="0.9259"
   style="stop-color:#DDE5F1"
   id="stop100" />
	<stop
   offset="1"
   style="stop-color:#F9FAFB"
   id="stop102" />
</linearGradient>
<path
   d="m 411.82766,28.209 c 3.388,-1.467 3.402,-1.139 3.402,-1.139 l 3.462,9.782 c 1.09,1.762 1.995,5.149 1.995,5.149 l 2.818,3.427 c 3.038,3.229 8.574,10.273 8.574,10.273 0,0 0.31,7.314 0.296,8.272 -0.019,0.964 0.56,1.516 1.108,1.918 0.56,0.402 4.758,4.746 4.758,4.746 0,0 0.954,1.464 0.569,2.484 -0.39,1.016 -0.354,4.85 -0.405,5.491 -0.398,5.24 -0.254,2.425 -0.305,6.138 -0.012,1.156 0.504,2.166 1.547,3.448 1.039,1.286 3.924,4.236 3.924,4.236 0,0 -0.19,0.462 -0.272,3.086 -0.116,3.59 0.679,7.574 0.679,7.574 l 6.634,4.775 c 1.52,1.057 7.506,1.036 8.489,1.858 0.984,0.814 3.389,3.855 3.721,4.244 1.588,1.859 1.852,1.859 3.454,3.523 0.771,0.803 9.082,4.748 9.016,5.236 -0.076,0.492 3.312,6.136 1.856,6.098 -19.639,-0.527 -34.202,-1.401 -34.973,-1.445 -0.764,-0.042 -3.983,-0.376 -4.182,-0.977 -0.196,-0.622 -2.006,-1.951 -2.952,-2.447 -0.952,-0.507 -4.742,-1.395 -5.296,-1.786 -0.553,-0.404 -1.393,-1.078 -2.313,-1.265 -0.912,-0.197 -3.109,-0.502 -3.985,-0.374 -0.872,0.13 -4.181,0.13 -4.181,0.13 0,0 -2.037,-1.142 -2.861,-1.655 -0.826,-0.521 -7.185,-5.99 -7.902,-6.677 -0.712,-0.693 -3.326,-0.153 -4.348,-1.287 -1.022,-1.126 -6.61,-5.431 -6.61,-5.431 0,0 -12.332,3.263 -12.786,2.687 -0.441,-0.578 -2.58,-2.502 -3.638,-3.946 -1.054,-1.444 -5.798,-13.718 -5.798,-13.718 0,0 -1.71,-0.548 -2.696,-0.242 -0.978,0.304 -13.334,-2.034 -13.89,-2.436 -0.553,-0.398 -2.326,-0.293 -2.696,-0.236 -0.376,0.048 -1.166,-0.154 -1.346,-0.61 -0.177,-0.458 -0.816,-3.724 -0.923,-4.67 -0.113,-0.944 0.068,-0.481 -1.224,-1.733 -1.29,-1.261 -6.78,-9.095 -6.78,-9.095 -1.397,-1.067 -5.712,-2.04 -5.712,-2.04 l -1.184,-3.668 c 0,0 -0.479,-1.424 3.2,-2.611 3.678,-1.183 6.918,-2.395 6.918,-2.395 2.54,-0.052 8.897,-5.189 13.04,-4.525 4.149,0.67 12.332,-2.614 14.622,-3.854 3.634,-1.97 13.1,-5.848 13.1,-5.848 0,0 2.784,-1.013 3.464,-1.746 l 6.038,-7.438 1.634,-2.406 c 0,0 0.122,-0.275 0.648,-0.497 0.526,-0.225 3.692,-1.03 4.64,-1.723 0.958,-0.696 5.652,-4.655 5.652,-4.655"
   id="path104"
   style="fill:url(#XMLID_6_)" />

</svg>